<svg xmlns="http://www.w3.org/2000/svg" xmlns:xlink="http://www.w3.org/1999/xlink" width="332" zoomAndPan="magnify" viewBox="0 0 249 37.5" height="50" preserveAspectRatio="xMidYMid meet" version="1.0"><defs><g/><clipPath id="a116422e9c"><path d="M 212.835938 1.726562 L 243.917969 1.726562 L 243.917969 35.035156 L 212.835938 35.035156 Z M 212.835938 1.726562 " clip-rule="nonzero"/></clipPath><clipPath id="2246555d5f"><path d="M 227.1875 36.507812 L 213.648438 26.597656 C 213.136719 26.222656 212.835938 25.625 212.835938 24.992188 L 212.835938 11.644531 L 227.1875 22.152344 Z M 229.324219 36.507812 L 242.863281 26.597656 C 243.375 26.222656 243.679688 25.625 243.679688 24.992188 L 243.679688 11.644531 L 229.324219 22.152344 Z M 227.136719 0.878906 L 213.851562 9.941406 L 228.207031 20.449219 L 228.257812 20.410156 L 228.304688 20.449219 L 242.660156 9.941406 L 229.375 0.878906 C 228.699219 0.417969 227.8125 0.417969 227.136719 0.878906 Z M 227.136719 0.878906 " clip-rule="nonzero"/></clipPath></defs><g clip-path="url(#a116422e9c)"><g clip-path="url(#2246555d5f)"><path fill="#d5d5d3" d="M 212.835938 1.726562 L 212.835938 35.035156 L 243.679688 35.035156 L 243.679688 1.726562 Z M 212.835938 1.726562 " fill-opacity="1" fill-rule="nonzero"/></g></g><g fill="#282727" fill-opacity="1"><g transform="translate(216.698933, 27.165928)"><g><path d="M 0.828125 -6.5 C 1.054688 -6.59375 1.296875 -6.703125 1.546875 -6.828125 C 1.796875 -6.953125 2.035156 -7.085938 2.265625 -7.234375 C 2.503906 -7.378906 2.734375 -7.53125 2.953125 -7.6875 C 3.171875 -7.851562 3.367188 -8.023438 3.546875 -8.203125 L 4.765625 -8.203125 L 4.765625 0 L 3.015625 0 L 3.015625 -5.90625 C 2.773438 -5.75 2.507812 -5.601562 2.21875 -5.46875 C 1.925781 -5.34375 1.640625 -5.234375 1.359375 -5.140625 Z M 0.828125 -6.5 "/></g></g></g><g fill="#d5d5d3" fill-opacity="1"><g transform="translate(10.184565, 26.499899)"><g><path d="M 1.8125 0 L 1.8125 -15.640625 L 12.28125 -15.640625 L 12.28125 -12.6875 L 5.328125 -12.6875 L 5.328125 -9.40625 L 11.5 -9.40625 L 11.5 -6.453125 L 5.328125 -6.453125 L 5.328125 0 Z M 1.8125 0 "/></g></g></g><g fill="#d5d5d3" fill-opacity="1"><g transform="translate(23.131188, 26.499899)"><g><path d="M 1.8125 -15.640625 L 5.328125 -15.640625 L 5.328125 0 L 1.8125 0 Z M 1.8125 -15.640625 "/></g></g></g><g fill="#d5d5d3" fill-opacity="1"><g transform="translate(30.258595, 26.499899)"><g><path d="M 12.296875 0 C 11.285156 -1.789062 10.191406 -3.554688 9.015625 -5.296875 C 7.847656 -7.046875 6.601562 -8.695312 5.28125 -10.25 L 5.28125 0 L 1.8125 0 L 1.8125 -15.640625 L 4.671875 -15.640625 C 5.171875 -15.140625 5.71875 -14.523438 6.3125 -13.796875 C 6.914062 -13.078125 7.53125 -12.304688 8.15625 -11.484375 C 8.78125 -10.671875 9.398438 -9.820312 10.015625 -8.9375 C 10.628906 -8.0625 11.207031 -7.21875 11.75 -6.40625 L 11.75 -15.640625 L 15.25 -15.640625 L 15.25 0 Z M 12.296875 0 "/></g></g></g><g fill="#d5d5d3" fill-opacity="1"><g transform="translate(47.310245, 26.499899)"><g><path d="M 12.28125 0 C 12.113281 -0.539062 11.925781 -1.097656 11.71875 -1.671875 C 11.519531 -2.242188 11.320312 -2.816406 11.125 -3.390625 L 5.03125 -3.390625 C 4.832031 -2.816406 4.628906 -2.242188 4.421875 -1.671875 C 4.222656 -1.097656 4.039062 -0.539062 3.875 0 L 0.21875 0 C 0.8125 -1.6875 1.367188 -3.242188 1.890625 -4.671875 C 2.421875 -6.097656 2.9375 -7.441406 3.4375 -8.703125 C 3.945312 -9.972656 4.441406 -11.175781 4.921875 -12.3125 C 5.410156 -13.445312 5.921875 -14.554688 6.453125 -15.640625 L 9.8125 -15.640625 C 10.320312 -14.554688 10.828125 -13.445312 11.328125 -12.3125 C 11.828125 -11.175781 12.328125 -9.972656 12.828125 -8.703125 C 13.328125 -7.441406 13.835938 -6.097656 14.359375 -4.671875 C 14.890625 -3.242188 15.453125 -1.6875 16.046875 0 Z M 8.0625 -12.09375 C 7.976562 -11.863281 7.859375 -11.550781 7.703125 -11.15625 C 7.554688 -10.769531 7.382812 -10.320312 7.1875 -9.8125 C 7 -9.300781 6.785156 -8.738281 6.546875 -8.125 C 6.316406 -7.507812 6.082031 -6.863281 5.84375 -6.1875 L 10.28125 -6.1875 C 10.039062 -6.863281 9.804688 -7.507812 9.578125 -8.125 C 9.359375 -8.738281 9.144531 -9.300781 8.9375 -9.8125 C 8.738281 -10.320312 8.5625 -10.769531 8.40625 -11.15625 C 8.257812 -11.550781 8.144531 -11.863281 8.0625 -12.09375 Z M 8.0625 -12.09375 "/></g></g></g><g fill="#d5d5d3" fill-opacity="1"><g transform="translate(63.572465, 26.499899)"><g><path d="M 12.296875 0 C 11.285156 -1.789062 10.191406 -3.554688 9.015625 -5.296875 C 7.847656 -7.046875 6.601562 -8.695312 5.28125 -10.25 L 5.28125 0 L 1.8125 0 L 1.8125 -15.640625 L 4.671875 -15.640625 C 5.171875 -15.140625 5.71875 -14.523438 6.3125 -13.796875 C 6.914062 -13.078125 7.53125 -12.304688 8.15625 -11.484375 C 8.78125 -10.671875 9.398438 -9.820312 10.015625 -8.9375 C 10.628906 -8.0625 11.207031 -7.21875 11.75 -6.40625 L 11.75 -15.640625 L 15.25 -15.640625 L 15.25 0 Z M 12.296875 0 "/></g></g></g><g fill="#d5d5d3" fill-opacity="1"><g transform="translate(80.624115, 26.499899)"><g><path d="M 8.9375 0.3125 C 6.394531 0.3125 4.457031 -0.390625 3.125 -1.796875 C 1.789062 -3.210938 1.125 -5.222656 1.125 -7.828125 C 1.125 -9.117188 1.328125 -10.269531 1.734375 -11.28125 C 2.140625 -12.300781 2.695312 -13.160156 3.40625 -13.859375 C 4.113281 -14.554688 4.957031 -15.085938 5.9375 -15.453125 C 6.914062 -15.816406 7.972656 -16 9.109375 -16 C 9.773438 -16 10.378906 -15.945312 10.921875 -15.84375 C 11.460938 -15.75 11.9375 -15.632812 12.34375 -15.5 C 12.75 -15.375 13.085938 -15.242188 13.359375 -15.109375 C 13.628906 -14.972656 13.820312 -14.867188 13.9375 -14.796875 L 12.921875 -11.953125 C 12.441406 -12.210938 11.878906 -12.429688 11.234375 -12.609375 C 10.597656 -12.796875 9.875 -12.890625 9.0625 -12.890625 C 8.53125 -12.890625 8.003906 -12.796875 7.484375 -12.609375 C 6.960938 -12.429688 6.5 -12.140625 6.09375 -11.734375 C 5.695312 -11.335938 5.378906 -10.820312 5.140625 -10.1875 C 4.898438 -9.5625 4.78125 -8.796875 4.78125 -7.890625 C 4.78125 -7.171875 4.859375 -6.5 5.015625 -5.875 C 5.171875 -5.25 5.425781 -4.710938 5.78125 -4.265625 C 6.132812 -3.816406 6.597656 -3.457031 7.171875 -3.1875 C 7.742188 -2.925781 8.4375 -2.796875 9.25 -2.796875 C 9.757812 -2.796875 10.21875 -2.828125 10.625 -2.890625 C 11.03125 -2.953125 11.390625 -3.019531 11.703125 -3.09375 C 12.023438 -3.175781 12.304688 -3.269531 12.546875 -3.375 C 12.785156 -3.488281 13.003906 -3.585938 13.203125 -3.671875 L 14.171875 -0.859375 C 13.671875 -0.554688 12.96875 -0.285156 12.0625 -0.046875 C 11.164062 0.191406 10.125 0.3125 8.9375 0.3125 Z M 8.9375 0.3125 "/></g></g></g><g fill="#d5d5d3" fill-opacity="1"><g transform="translate(95.239814, 26.499899)"><g><path d="M 1.8125 0 L 1.8125 -15.640625 L 12.359375 -15.640625 L 12.359375 -12.6875 L 5.328125 -12.6875 L 5.328125 -9.609375 L 11.578125 -9.609375 L 11.578125 -6.71875 L 5.328125 -6.71875 L 5.328125 -2.953125 L 12.890625 -2.953125 L 12.890625 0 Z M 1.8125 0 "/></g></g></g><g fill="#d5d5d3" fill-opacity="1"><g transform="translate(108.9082, 26.499899)"><g/></g></g><g fill="#d5d5d3" fill-opacity="1"><g transform="translate(114.321426, 26.499899)"><g><path d="M 6.0625 -2.6875 C 6.5625 -2.6875 6.972656 -2.726562 7.296875 -2.8125 C 7.617188 -2.894531 7.878906 -3.003906 8.078125 -3.140625 C 8.273438 -3.285156 8.410156 -3.457031 8.484375 -3.65625 C 8.554688 -3.851562 8.59375 -4.070312 8.59375 -4.3125 C 8.59375 -4.820312 8.351562 -5.242188 7.875 -5.578125 C 7.394531 -5.921875 6.566406 -6.285156 5.390625 -6.671875 C 4.878906 -6.859375 4.367188 -7.066406 3.859375 -7.296875 C 3.347656 -7.535156 2.890625 -7.828125 2.484375 -8.171875 C 2.078125 -8.523438 1.742188 -8.953125 1.484375 -9.453125 C 1.234375 -9.960938 1.109375 -10.578125 1.109375 -11.296875 C 1.109375 -12.023438 1.242188 -12.675781 1.515625 -13.25 C 1.785156 -13.832031 2.164062 -14.328125 2.65625 -14.734375 C 3.15625 -15.140625 3.757812 -15.453125 4.46875 -15.671875 C 5.175781 -15.890625 5.972656 -16 6.859375 -16 C 7.910156 -16 8.816406 -15.882812 9.578125 -15.65625 C 10.347656 -15.425781 10.984375 -15.175781 11.484375 -14.90625 L 10.46875 -12.140625 C 10.03125 -12.367188 9.546875 -12.566406 9.015625 -12.734375 C 8.484375 -12.910156 7.835938 -13 7.078125 -13 C 6.242188 -13 5.640625 -12.878906 5.265625 -12.640625 C 4.898438 -12.410156 4.71875 -12.054688 4.71875 -11.578125 C 4.71875 -11.285156 4.785156 -11.039062 4.921875 -10.84375 C 5.054688 -10.65625 5.242188 -10.476562 5.484375 -10.3125 C 5.734375 -10.15625 6.019531 -10.015625 6.34375 -9.890625 C 6.675781 -9.765625 7.035156 -9.632812 7.421875 -9.5 C 8.234375 -9.195312 8.941406 -8.898438 9.546875 -8.609375 C 10.148438 -8.316406 10.648438 -7.972656 11.046875 -7.578125 C 11.441406 -7.191406 11.738281 -6.734375 11.9375 -6.203125 C 12.132812 -5.679688 12.234375 -5.039062 12.234375 -4.28125 C 12.234375 -2.820312 11.71875 -1.691406 10.6875 -0.890625 C 9.664062 -0.0859375 8.125 0.3125 6.0625 0.3125 C 5.375 0.3125 4.75 0.269531 4.1875 0.1875 C 3.632812 0.101562 3.144531 0.00390625 2.71875 -0.109375 C 2.289062 -0.234375 1.921875 -0.363281 1.609375 -0.5 C 1.304688 -0.632812 1.046875 -0.757812 0.828125 -0.875 L 1.828125 -3.671875 C 2.296875 -3.421875 2.867188 -3.191406 3.546875 -2.984375 C 4.234375 -2.785156 5.070312 -2.6875 6.0625 -2.6875 Z M 6.0625 -2.6875 "/></g></g></g><g fill="#d5d5d3" fill-opacity="1"><g transform="translate(127.448487, 26.499899)"><g><path d="M 7.53125 -9.203125 C 8.164062 -10.273438 8.769531 -11.34375 9.34375 -12.40625 C 9.914062 -13.476562 10.441406 -14.554688 10.921875 -15.640625 L 14.796875 -15.640625 C 13.941406 -13.953125 13.054688 -12.316406 12.140625 -10.734375 C 11.222656 -9.160156 10.253906 -7.578125 9.234375 -5.984375 L 9.234375 0 L 5.703125 0 L 5.703125 -5.9375 C 4.679688 -7.53125 3.707031 -9.125 2.78125 -10.71875 C 1.863281 -12.3125 0.972656 -13.953125 0.109375 -15.640625 L 4.203125 -15.640625 C 4.679688 -14.554688 5.195312 -13.476562 5.75 -12.40625 C 6.3125 -11.34375 6.90625 -10.273438 7.53125 -9.203125 Z M 7.53125 -9.203125 "/></g></g></g><g fill="#d5d5d3" fill-opacity="1"><g transform="translate(142.357398, 26.499899)"><g><path d="M 12.296875 0 C 11.285156 -1.789062 10.191406 -3.554688 9.015625 -5.296875 C 7.847656 -7.046875 6.601562 -8.695312 5.28125 -10.25 L 5.28125 0 L 1.8125 0 L 1.8125 -15.640625 L 4.671875 -15.640625 C 5.171875 -15.140625 5.71875 -14.523438 6.3125 -13.796875 C 6.914062 -13.078125 7.53125 -12.304688 8.15625 -11.484375 C 8.78125 -10.671875 9.398438 -9.820312 10.015625 -8.9375 C 10.628906 -8.0625 11.207031 -7.21875 11.75 -6.40625 L 11.75 -15.640625 L 15.25 -15.640625 L 15.25 0 Z M 12.296875 0 "/></g></g></g><g fill="#d5d5d3" fill-opacity="1"><g transform="translate(159.409041, 26.499899)"><g><path d="M 13.40625 -15.640625 L 13.40625 -12.640625 L 8.6875 -12.640625 L 8.6875 0 L 5.171875 0 L 5.171875 -12.640625 L 0.453125 -12.640625 L 0.453125 -15.640625 Z M 13.40625 -15.640625 "/></g></g></g><g fill="#d5d5d3" fill-opacity="1"><g transform="translate(173.257866, 26.499899)"><g><path d="M 12.28125 0 C 12.113281 -0.539062 11.925781 -1.097656 11.71875 -1.671875 C 11.519531 -2.242188 11.320312 -2.816406 11.125 -3.390625 L 5.03125 -3.390625 C 4.832031 -2.816406 4.628906 -2.242188 4.421875 -1.671875 C 4.222656 -1.097656 4.039062 -0.539062 3.875 0 L 0.21875 0 C 0.8125 -1.6875 1.367188 -3.242188 1.890625 -4.671875 C 2.421875 -6.097656 2.9375 -7.441406 3.4375 -8.703125 C 3.945312 -9.972656 4.441406 -11.175781 4.921875 -12.3125 C 5.410156 -13.445312 5.921875 -14.554688 6.453125 -15.640625 L 9.8125 -15.640625 C 10.320312 -14.554688 10.828125 -13.445312 11.328125 -12.3125 C 11.828125 -11.175781 12.328125 -9.972656 12.828125 -8.703125 C 13.328125 -7.441406 13.835938 -6.097656 14.359375 -4.671875 C 14.890625 -3.242188 15.453125 -1.6875 16.046875 0 Z M 8.0625 -12.09375 C 7.976562 -11.863281 7.859375 -11.550781 7.703125 -11.15625 C 7.554688 -10.769531 7.382812 -10.320312 7.1875 -9.8125 C 7 -9.300781 6.785156 -8.738281 6.546875 -8.125 C 6.316406 -7.507812 6.082031 -6.863281 5.84375 -6.1875 L 10.28125 -6.1875 C 10.039062 -6.863281 9.804688 -7.507812 9.578125 -8.125 C 9.359375 -8.738281 9.144531 -9.300781 8.9375 -9.8125 C 8.738281 -10.320312 8.5625 -10.769531 8.40625 -11.15625 C 8.257812 -11.550781 8.144531 -11.863281 8.0625 -12.09375 Z M 8.0625 -12.09375 "/></g></g></g><g fill="#d5d5d3" fill-opacity="1"><g transform="translate(189.520093, 26.499899)"><g><path d="M 10.78125 0 C 10.34375 -0.875 9.863281 -1.757812 9.34375 -2.65625 C 8.832031 -3.550781 8.238281 -4.460938 7.5625 -5.390625 C 7.351562 -5.117188 7.082031 -4.742188 6.75 -4.265625 C 6.425781 -3.785156 6.101562 -3.273438 5.78125 -2.734375 C 5.457031 -2.191406 5.148438 -1.671875 4.859375 -1.171875 C 4.578125 -0.671875 4.367188 -0.28125 4.234375 0 L 0.21875 0 C 0.882812 -1.21875 1.65625 -2.492188 2.53125 -3.828125 C 3.414062 -5.171875 4.398438 -6.59375 5.484375 -8.09375 L 0.453125 -15.640625 L 4.71875 -15.640625 L 7.765625 -10.765625 L 10.734375 -15.640625 L 14.75 -15.640625 L 9.796875 -8.0625 C 11.054688 -6.414062 12.113281 -4.894531 12.96875 -3.5 C 13.832031 -2.113281 14.507812 -0.945312 15 0 Z M 10.78125 0 "/></g></g></g><g fill="#282727" fill-opacity="1"><g transform="translate(233.06687, 27.165928)"><g><path d="M 0.828125 -6.5 C 1.054688 -6.59375 1.296875 -6.703125 1.546875 -6.828125 C 1.796875 -6.953125 2.035156 -7.085938 2.265625 -7.234375 C 2.503906 -7.378906 2.734375 -7.53125 2.953125 -7.6875 C 3.171875 -7.851562 3.367188 -8.023438 3.546875 -8.203125 L 4.765625 -8.203125 L 4.765625 0 L 3.015625 0 L 3.015625 -5.90625 C 2.773438 -5.75 2.507812 -5.601562 2.21875 -5.46875 C 1.925781 -5.34375 1.640625 -5.234375 1.359375 -5.140625 Z M 0.828125 -6.5 "/></g></g></g><g fill="#282727" fill-opacity="1"><g transform="translate(223.936711, 13.257237)"><g><path d="M 6.328125 -4.125 C 6.328125 -2.738281 6.0625 -1.675781 5.53125 -0.9375 C 5.007812 -0.195312 4.285156 0.171875 3.359375 0.171875 C 2.441406 0.171875 1.71875 -0.195312 1.1875 -0.9375 C 0.664062 -1.675781 0.40625 -2.738281 0.40625 -4.125 C 0.40625 -4.8125 0.472656 -5.414062 0.609375 -5.9375 C 0.742188 -6.46875 0.941406 -6.914062 1.203125 -7.28125 C 1.460938 -7.644531 1.773438 -7.921875 2.140625 -8.109375 C 2.503906 -8.296875 2.910156 -8.390625 3.359375 -8.390625 C 4.285156 -8.390625 5.007812 -8.019531 5.53125 -7.28125 C 6.0625 -6.550781 6.328125 -5.5 6.328125 -4.125 Z M 4.53125 -4.125 C 4.53125 -4.53125 4.507812 -4.898438 4.46875 -5.234375 C 4.425781 -5.578125 4.359375 -5.867188 4.265625 -6.109375 C 4.179688 -6.359375 4.0625 -6.546875 3.90625 -6.671875 C 3.757812 -6.804688 3.578125 -6.875 3.359375 -6.875 C 3.140625 -6.875 2.957031 -6.804688 2.8125 -6.671875 C 2.664062 -6.546875 2.546875 -6.359375 2.453125 -6.109375 C 2.367188 -5.867188 2.304688 -5.578125 2.265625 -5.234375 C 2.222656 -4.898438 2.203125 -4.53125 2.203125 -4.125 C 2.203125 -3.707031 2.222656 -3.328125 2.265625 -2.984375 C 2.304688 -2.648438 2.367188 -2.359375 2.453125 -2.109375 C 2.546875 -1.867188 2.664062 -1.679688 2.8125 -1.546875 C 2.957031 -1.410156 3.140625 -1.34375 3.359375 -1.34375 C 3.578125 -1.34375 3.757812 -1.410156 3.90625 -1.546875 C 4.0625 -1.679688 4.179688 -1.867188 4.265625 -2.109375 C 4.359375 -2.359375 4.425781 -2.648438 4.46875 -2.984375 C 4.507812 -3.328125 4.53125 -3.707031 4.53125 -4.125 Z M 4.53125 -4.125 "/></g></g></g></svg>